<?xml version="1.0" encoding="utf-8"?>
<!-- Generator: Adobe Illustrator 16.0.0, SVG Export Plug-In . SVG Version: 6.00 Build 0)  -->
<!DOCTYPE svg PUBLIC "-//W3C//DTD SVG 1.1//EN" "http://www.w3.org/Graphics/SVG/1.1/DTD/svg11.dtd">
<svg version="1.1" id="Shape_6_copy_1_" opacity="0.8"
	 xmlns="http://www.w3.org/2000/svg" xmlns:xlink="http://www.w3.org/1999/xlink" x="0px" y="0px" width="3107.5px" height="612px"
	 viewBox="-2315.5 0 3107.5 612" enable-background="new -2315.5 0 3107.5 612" xml:space="preserve">
<g id="Shape_6_copy">
	<g>
		<path d="M56,0v136h680V0H56z M56,374h680V238H56V374z M56,612h680V476H56V612z"/>
	</g>
</g>
<path d="M-1724.775,167.392l-193.802,258.402h-22.1l-189.551-259.252v432.652h-112.201V4.191h129.201l186.151,255.852
	l186.151-255.852h128.351v595.003h-112.201V167.392z"/>
<path d="M-1131.544,598.345h-445.403c0-198.051,0-396.952,0-595.004h445.403v108.801h-334.052v136.851h322.152v104.55h-322.152
	v134.301h334.052V598.345z"/>
<path d="M-713.921,2.491h112.201v595.854h-69.701v0.85l-312.802-402.052v401.203h-112.201V3.341h90.951l291.552,368.902V2.491z"/>
<path d="M-38.032,4.191v340.852c0,175.951-107.951,266.052-257.552,266.052c-142.801,0-264.352-86.7-264.352-266.052V4.191h111.351
	v340.852c0,107.101,61.201,164.051,153.851,164.051s145.352-62.05,145.352-164.051V4.191H-38.032z"/>
</svg>
